HIERARCHY
ROOT Hips
{
	OFFSET 0.000000 0.000000 0.000000 
	CHANNELS 6 Xposition Yposition Zposition Zrotation Yrotation Xrotation
	JOINT LeftUpLeg
	{
		OFFSET 1.363060 -1.794630 0.839290 
		CHANNELS 3 Zrotation Yrotation Xrotation
		JOINT LeftLeg
		{
			OFFSET 2.448110 -6.726130 0.000000 
			CHANNELS 3 Zrotation Yrotation Xrotation
			JOINT LeftFoot
			{
				OFFSET 2.562200 -7.039590 0.000000 
				CHANNELS 3 Zrotation Yrotation Xrotation
				JOINT LeftToeBase
				{
					OFFSET 0.157640 -0.433110 2.322550 
					CHANNELS 3 Zrotation Yrotation Xrotation
					End Site
					{
						OFFSET 0.000000 0.000000 0.000000 
					}
				}
			}
		}
	}
	JOINT RightUpLeg
	{
		OFFSET -1.305520 -1.794630 0.839290 
		CHANNELS 3 Zrotation Yrotation Xrotation
		JOINT RightLeg
		{
			OFFSET -2.542530 -6.985550 0.000000 
			CHANNELS 3 Zrotation Yrotation Xrotation
			JOINT RightFoot
			{
				OFFSET -2.568260 -7.056230 0.000000 
				CHANNELS 3 Zrotation Yrotation Xrotation
				JOINT RightToeBase
				{
					OFFSET -0.164730 -0.452590 2.363150 
					CHANNELS 3 Zrotation Yrotation Xrotation
					End Site
					{
						OFFSET 0.000000 0.000000 0.000000 
					}
				}
			}
		}
	}
	JOINT Spine
	{
		OFFSET 0.028270 2.035590 -0.193380 
		CHANNELS 3 Zrotation Yrotation Xrotation
		JOINT Spine1
		{
			OFFSET 0.056720 2.048850 -0.042750 
			CHANNELS 3 Zrotation Yrotation Xrotation
			JOINT Neck1
			{
				OFFSET -0.054170 1.746240 0.172020 
				CHANNELS 3 Zrotation Yrotation Xrotation
				JOINT Head
				{
					OFFSET 0.104070 1.761360 -0.123970 
					CHANNELS 3 Zrotation Yrotation Xrotation
					End Site
					{
						OFFSET 0.000000 0.000000 0.000000 
					}
				}
			}
			JOINT LeftArm
			{
				OFFSET 3.362410 1.200890 -0.311210 
				CHANNELS 3 Zrotation Yrotation Xrotation
				JOINT LeftForeArm
				{
					OFFSET 4.983000 -0.000000 -0.000000 
					CHANNELS 3 Zrotation Yrotation Xrotation
					JOINT LeftHand
					{
						OFFSET 3.483560 -0.000000 -0.000000 
						CHANNELS 3 Zrotation Yrotation Xrotation
						JOINT LeftHandIndex1
						{
							OFFSET 0.715260 -0.000000 -0.000000 
							CHANNELS 3 Zrotation Yrotation Xrotation
							End Site
							{
								OFFSET 0.000000 0.000000 0.000000 
							}
						}
					}
				}
			}
			JOINT RightArm
			{
				OFFSET -3.136600 1.374050 -0.404650 
				CHANNELS 3 Zrotation Yrotation Xrotation
				JOINT RightForeArm
				{
					OFFSET -5.241900 -0.000000 -0.000000 
					CHANNELS 3 Zrotation Yrotation Xrotation
					JOINT RightHand
					{
						OFFSET -3.444170 -0.000000 -0.000000 
						CHANNELS 3 Zrotation Yrotation Xrotation
						JOINT RightHandIndex1
						{
							OFFSET -0.622530 -0.000000 -0.000000 
							CHANNELS 3 Zrotation Yrotation Xrotation
							End Site
							{
								OFFSET 0.000000 0.000000 0.000000 
							}
						}
					}
				}
			}
		}
	}
}
MOTION
Frames: 18
Frame Time: 0.041667
17.104137 17.976227 -13.001960 3.669198 -69.592744 7.553825 -25.895320 -3.851234 -24.025396 -1.224001 8.524315 21.261261 -5.875915 19.553588 -7.273835 0.434300 4.229200 11.722300 20.156406 3.347819 -10.305949 -1.482024 -8.205681 25.436013 2.841022 -14.470618 -7.317744 -0.219200 3.014100 -8.317900 -3.741971 1.739949 5.077958 0.794863 1.828936 -7.385123 2.336981 5.000040 5.062973 -2.110200 2.503700 2.898400 -73.750333 -3.567123 17.007947 15.343254 -19.446896 -3.806192 -0.647468 0.432874 -15.863235 -7.125000 0.000000 0.000000 74.538557 -9.793157 43.512695 -26.230019 31.368194 -10.008735 0.747459 2.966359 -7.920256 7.125000 0.000000 0.000000 
17.109699 17.980474 -13.013285 3.641548 -69.764353 7.449085 -25.832687 -3.743853 -23.790861 -1.258218 8.418380 21.040562 -5.879967 19.538576 -7.425028 0.449100 4.299700 11.921300 20.094217 3.261545 -9.945352 -1.469229 -8.138461 25.328122 2.836500 -14.443307 -7.507114 -0.331200 3.698600 -10.230200 -3.633529 1.849615 5.096209 0.781407 1.883639 -7.404186 2.674183 4.966921 4.806312 -1.901900 2.473100 2.739400 -73.989914 -3.680756 16.777085 15.289419 -19.347147 -3.777596 -0.619505 0.450971 -15.408586 -7.125000 0.000000 0.000000 74.451603 -9.714030 43.355196 -26.146586 31.283516 -9.947098 0.656116 2.942205 -7.971255 7.125000 0.000000 0.000000 
17.117384 18.002114 -13.028757 4.742966 -69.998780 6.377032 -26.358626 -3.508608 -23.863339 -1.207376 8.535502 21.368620 -5.879221 19.576304 -7.591590 0.339200 3.742600 10.353500 19.550888 3.299328 -9.843203 -1.435699 -8.022419 25.020383 2.912451 -14.681951 -7.093222 -0.405100 4.086200 -11.319400 -3.718434 1.872300 5.047496 0.834351 1.915453 -7.486929 2.645011 4.999277 4.764351 -1.885200 2.484300 2.707100 -74.062796 -3.566351 17.066118 15.364050 -19.452660 -3.818120 -0.618054 0.440933 -15.589795 -7.125000 0.000000 0.000000 74.481345 -9.543052 43.355522 -26.056598 31.192947 -9.897280 0.833954 3.014481 -8.050452 7.125000 0.000000 0.000000 
17.133362 17.995339 -13.054342 4.951864 -70.049941 6.139428 -26.682572 -2.968216 -24.059129 -1.142178 8.635691 21.642611 -5.900770 19.651462 -7.185076 0.198000 2.865400 7.904100 19.482472 2.865535 -9.387701 -1.396638 -7.858000 24.701875 2.771028 -14.064378 -7.109069 -0.236300 3.128400 -8.636500 -3.868938 1.785415 4.973335 0.668660 1.866002 -7.587801 2.630476 5.020906 5.123215 -1.931100 2.519100 2.870000 -73.798654 -3.358641 17.686186 15.497589 -19.670097 -3.890939 -0.639098 0.399506 -16.346155 -7.125000 0.000000 0.000000 74.685559 -9.504132 43.299417 -26.042017 31.179790 -9.902065 1.079750 3.055932 -7.598096 7.125000 0.000000 0.000000 
17.143171 17.997361 -13.080735 3.654158 -69.905293 7.366333 -26.222248 -2.837395 -24.243352 -1.101129 8.707045 21.831820 -5.887227 19.588753 -6.933737 0.168100 2.641100 7.281100 20.064404 2.422738 -9.097797 -1.342441 -7.730610 24.379891 2.815706 -14.226958 -7.178201 -0.305700 3.555000 -9.828000 -3.792313 1.688762 4.984821 0.449427 1.784608 -7.466035 2.939429 5.116871 4.979638 -1.812900 2.567500 2.797800 -73.600376 -3.464540 17.727876 15.517157 -19.698753 -3.892894 -0.656332 0.364122 -16.620982 -7.125000 0.000000 0.000000 74.693675 -9.583586 43.404613 -26.226726 31.352382 -10.018590 1.095429 3.019377 -7.398850 7.125000 0.000000 0.000000 
17.147721 18.005856 -13.105308 2.979172 -69.943123 8.012342 -25.850808 -2.927591 -24.343710 -1.080776 8.753649 21.940760 -5.900047 19.609592 -6.849949 0.182700 2.752800 7.591300 20.342377 2.354697 -8.849349 -1.291372 -7.620942 24.082347 2.869659 -14.431584 -7.244626 -0.330100 3.692700 -10.213700 -3.656642 1.689176 5.002790 0.472452 1.776528 -7.343204 2.866195 5.255503 4.734049 -1.841800 2.623200 2.686500 -73.643113 -3.558298 17.426647 15.564857 -19.748572 -3.906214 -0.644083 0.325991 -16.436691 -7.125000 0.000000 0.000000 74.604318 -9.606391 43.668610 -26.384173 31.497451 -10.117735 1.034994 2.998721 -7.930894 7.125000 0.000000 0.000000 
17.153789 18.009092 -13.124622 2.997779 -70.134436 7.909597 -25.761824 -2.944524 -24.224187 -1.089235 8.721520 21.871722 -5.942180 19.714732 -6.877775 0.190200 2.808700 7.746600 20.300416 2.587892 -8.470755 -1.257928 -7.526310 23.854012 2.925804 -14.632823 -7.241835 -0.281800 3.414200 -9.434100 -3.609231 1.743969 4.947271 0.489602 1.804266 -7.452572 2.344290 5.252581 5.105203 -2.080700 2.633400 2.875300 -73.791460 -3.478296 17.073939 15.632429 -19.843591 -3.949089 -0.607403 0.346730 -16.154053 -7.125000 0.000000 0.000000 74.553101 -9.585763 43.772664 -26.362207 31.483684 -10.112129 1.085891 3.023650 -8.070103 7.125000 0.000000 0.000000 
17.162486 17.995440 -13.144342 3.070955 -70.321957 7.784904 -25.145520 -4.359827 -23.857806 -1.187030 8.653991 21.624667 -6.119928 20.209953 -8.277988 0.400000 4.060700 11.247400 20.265356 2.824304 -8.158185 -1.243829 -7.476213 23.758099 2.967907 -14.795724 -7.363573 -0.235900 3.126000 -8.629800 -3.614270 1.789673 4.905501 0.424091 1.824163 -7.518742 2.031348 5.223001 5.274712 -2.226900 2.621900 2.975200 -73.857178 -3.499674 16.895571 15.617800 -19.825597 -3.955063 -0.599273 0.414925 -15.912074 -7.125000 0.000000 0.000000 74.515080 -9.502044 43.880010 -26.399314 31.522792 -10.148109 1.082286 3.063221 -7.946840 7.125000 0.000000 0.000000 
17.170373 17.986339 -13.166993 3.348699 -70.529410 7.521605 -24.944818 -5.012958 -23.689112 -1.237663 8.618866 21.487918 -6.304631 20.741163 -9.078426 0.441200 4.262100 11.815200 20.178209 2.909301 -8.027120 -1.242821 -7.454486 23.717233 2.993276 -14.877300 -7.239686 -0.271100 3.349500 -9.253500 -3.673825 1.890248 4.889314 0.351838 1.873131 -7.477091 1.999978 5.187195 5.026859 -2.244300 2.591900 2.850300 -73.808688 -3.470468 17.270781 15.660261 -19.886795 -3.981943 -0.596346 0.412094 -15.972860 -7.125000 0.000000 0.000000 74.646337 -9.483916 43.762050 -26.493085 31.600982 -10.207397 1.030619 3.061599 -8.069195 7.125000 0.000000 0.000000 
17.179980 17.973395 -13.194398 3.639433 -70.709332 7.236898 -25.054056 -4.680580 -23.719065 -1.250029 8.562636 21.349133 -6.344802 20.835083 -8.908926 0.415800 4.139100 11.468400 20.144014 2.652941 -8.063974 -1.267776 -7.469204 23.754640 3.090402 -15.210542 -6.553622 -0.531900 4.673500 -12.979700 -3.684050 1.941046 4.835984 0.380595 1.909524 -7.514809 2.014698 5.144631 4.818260 -2.228800 2.560500 2.728400 -73.798522 -3.385296 17.529246 15.719515 -19.973025 -4.014524 -0.566699 0.373810 -16.094605 -7.125000 0.000000 0.000000 74.753211 -9.479743 43.609628 -26.512605 31.606077 -10.207126 0.995720 3.023377 -8.063339 7.125000 0.000000 0.000000 
17.191103 17.965811 -13.226959 3.781579 -70.735351 7.096588 -25.202487 -3.864909 -23.994057 -1.236192 8.519589 21.257023 -6.201938 20.403995 -8.098896 0.381400 3.966000 10.981100 20.155777 2.223082 -8.170138 -1.293257 -7.484695 23.804102 3.109159 -15.248408 -5.925146 -0.647600 5.147800 -14.330600 -3.598275 1.847079 4.774836 0.534908 1.882163 -7.580637 1.840092 5.156789 4.613106 -2.287300 2.552000 2.632300 -73.787623 -3.356249 17.803324 15.734234 -19.990552 -4.014195 -0.596943 0.347304 -16.462995 -7.125000 0.000000 0.000000 74.633343 -9.484795 43.833030 -26.642907 31.727226 -10.287723 0.888139 2.992730 -8.072993 7.125000 0.000000 0.000000 
17.196564 17.970766 -13.257094 5.058363 -70.806276 5.928029 -25.657923 -3.499863 -24.120321 -1.246548 8.477349 21.144760 -6.069275 20.051683 -7.724798 0.395600 4.038500 11.185000 19.650383 2.440031 -8.141868 -1.302189 -7.485241 23.850803 2.991132 -14.774744 -6.118578 -0.335100 3.720300 -10.291100 -3.630691 1.830880 4.769883 0.753353 1.897804 -7.551179 1.750407 5.110227 4.628436 -2.299600 2.524400 2.641300 -73.830992 -3.392669 18.250043 15.775431 -20.030424 -4.023398 -0.646116 0.320197 -16.803830 -7.125000 0.000000 0.000000 74.461083 -9.499074 43.793305 -26.735036 31.820584 -10.348955 0.809352 2.974081 -7.805887 7.125000 0.000000 0.000000 
17.200811 17.978047 -13.286723 6.134639 -70.976544 4.896252 -26.018285 -3.321032 -24.136456 -1.256693 8.421096 20.928461 -6.335547 20.807279 -7.245064 0.257600 3.265300 9.018400 19.251968 3.017461 -7.881679 -1.293109 -7.466850 23.849772 2.902714 -14.448796 -6.715040 -0.239800 3.151600 -8.701200 -3.652740 1.892865 4.790067 0.908983 1.940801 -7.533035 2.012042 5.119891 4.979078 -2.151600 2.547300 2.782400 -73.950214 -3.461413 18.379509 15.820470 -20.073768 -4.043145 -0.640194 0.308916 -16.825076 -7.125000 0.000000 0.000000 74.368950 -9.446706 43.614702 -26.699796 31.788577 -10.322151 0.820017 2.962442 -7.591525 7.125000 0.000000 0.000000 
17.209205 17.980575 -13.311802 6.274029 -71.261504 4.502440 -26.047171 -2.855324 -24.010542 -1.251233 8.342906 20.732369 -6.592081 21.501193 -6.752669 0.131600 2.338200 6.441300 19.242295 3.162708 -7.435541 -1.275070 -7.393638 23.712428 2.916495 -14.485661 -6.794715 -0.466800 4.382200 -12.154300 -3.653416 1.992761 4.839541 0.851815 1.982169 -7.603954 2.349753 5.157690 5.377394 -1.999900 2.592500 2.938800 -73.984143 -3.466069 18.444881 15.815627 -20.065685 -4.044412 -0.648693 0.333909 -16.842149 -7.125000 0.000000 0.000000 74.436433 -9.322270 43.456157 -26.618218 31.706120 -10.268658 0.907033 2.980263 -7.170759 7.125000 0.000000 0.000000 
17.220126 17.977036 -13.335667 6.352563 -71.596102 4.248124 -25.903473 -2.712996 -23.778148 -1.272275 8.289136 20.718233 -6.377388 20.862737 -7.321149 0.262600 3.296500 9.105200 19.294612 3.486339 -6.989859 -1.223176 -7.264132 23.369137 3.005913 -14.807152 -6.673374 -0.531000 4.669600 -12.968700 -3.777530 2.164210 4.872780 0.590031 2.044225 -7.638290 2.805489 5.055544 5.563990 -1.821500 2.561300 3.008000 -73.862044 -3.527157 18.538728 15.754799 -19.991628 -4.023653 -0.643116 0.374407 -16.667090 -7.125000 0.000000 0.000000 74.666835 -9.243940 43.331463 -26.665222 31.745032 -10.313999 1.053512 3.029032 -7.121859 7.125000 0.000000 0.000000 
17.226396 17.971777 -13.367521 5.621247 -71.618119 5.131370 -25.377517 -3.176390 -23.981412 -1.285435 8.332364 20.758900 -6.405400 20.927906 -7.610113 0.334800 3.718500 10.286000 19.662105 3.888073 -6.809373 -1.126192 -7.104352 22.865416 3.024120 -14.884233 -6.847516 -0.376400 3.940200 -10.908600 -3.793536 2.165744 4.825658 0.391219 2.020508 -7.511108 2.985532 4.989647 5.387011 -1.755000 2.522800 2.942900 -73.664753 -3.642508 18.572194 15.724860 -19.959578 -4.018831 -0.603231 0.385845 -16.573867 -7.125000 0.000000 0.000000 74.865949 -9.139974 43.457854 -26.796521 31.854601 -10.405687 1.097565 3.043894 -7.652544 7.125000 0.000000 0.000000 
17.229632 17.967530 -13.401903 5.457952 -71.431579 5.345972 -25.198609 -3.455250 -24.269112 -1.255686 8.401997 20.756606 -6.819829 22.108174 -6.892343 0.128700 2.312500 6.370200 19.754409 3.805753 -6.605841 -1.045853 -6.924331 22.399018 2.901871 -14.393162 -7.148046 -0.256400 3.257800 -8.997400 -3.768480 1.968711 4.781941 0.407880 1.922062 -7.421157 2.793132 5.055898 5.174336 -1.843400 2.542400 2.856300 -73.530818 -3.621816 18.568764 15.734138 -19.985043 -4.025094 -0.611080 0.382329 -16.730092 -7.125000 0.000000 0.000000 74.849953 -9.208464 44.003346 -27.077912 32.108135 -10.585549 0.985723 3.006047 -8.720098 7.125000 0.000000 0.000000 
17.237014 17.960553 -13.436083 5.261897 -71.360305 5.330970 -25.056947 -3.517255 -24.104401 -1.234065 8.419593 20.832183 -6.879079 22.264113 -6.832855 0.111500 2.153200 5.929200 19.909566 3.801767 -6.142887 -0.975183 -6.738076 21.930836 2.903862 -14.366343 -7.161435 -0.290400 3.465500 -9.577400 -3.742180 1.821862 4.774056 0.350324 1.844242 -7.451201 2.911476 5.167798 5.065063 -1.806400 2.597900 2.780000 -73.466725 -3.509288 18.359241 15.750144 -20.026641 -4.034281 -0.617466 0.375178 -16.629240 -7.125000 0.000000 0.000000 74.758642 -9.508109 44.447959 -27.500150 32.519844 -10.900575 1.063905 3.058049 -9.428623 7.125000 0.000000 0.000000 
